<?xml version="1.0" encoding="UTF-8" standalone="no"?><svg xmlns="http://www.w3.org/2000/svg" xmlns:xlink="http://www.w3.org/1999/xlink" contentScriptType="application/ecmascript" contentStyleType="text/css" height="245px" preserveAspectRatio="none" style="width:450px;height:245px;" version="1.1" viewBox="0 0 450 245" width="450px" zoomAndPan="magnify"><defs><filter height="300%" id="f1zye73x2qfuf" width="300%" x="-1" y="-1"><feGaussianBlur result="blurOut" stdDeviation="2.0"/><feColorMatrix in="blurOut" result="blurOut2" type="matrix" values="0 0 0 0 0 0 0 0 0 0 0 0 0 0 0 0 0 0 .4 0"/><feOffset dx="4.0" dy="4.0" in="blurOut2" result="blurOut3"/><feBlend in="SourceGraphic" in2="blurOut3" mode="normal"/></filter></defs><g><text fill="#000000" font-family="sans-serif" font-size="14" font-weight="bold" lengthAdjust="spacingAndGlyphs" textLength="219" x="116" y="22.9951">The conceptual flow of ZCP</text><path d="M44,68.5938 L44.8019,68.5938 L44.982,78.346 L44.4654,88.0982 L43.8907,97.8504 L43.0874,107.6027 L44.7693,117.3549 L44.8202,127.1071 L43.1163,136.8594 L44.3603,146.6116 L43.9525,156.3638 L43.3464,166.1161 L44.8996,175.8683 L44.7956,185.6205 L43.0509,195.3728 L44,205.125 " fill="none" style="stroke: #383838; stroke-width: 1.0; stroke-dasharray: 5.0,5.0;"/><path d="M230.5,68.5938 L230.0043,68.5938 L231.4565,78.346 L229.7982,88.0982 L230.2788,97.8504 L230.1471,107.6027 L231.1041,117.3549 L231.0648,127.1071 L230.4433,136.8594 L231.0056,146.6116 L230.2541,156.3638 L230.1897,166.1161 L230.2306,175.8683 L231.4841,185.6205 L230.7084,195.3728 L230.5,205.125 " fill="none" style="stroke: #383838; stroke-width: 1.0; stroke-dasharray: 5.0,5.0;"/><path d="M405,68.5938 L404.1193,68.5938 L404.6159,78.346 L405.1096,88.0982 L404.9873,97.8504 L404.6992,107.6027 L404.3604,117.3549 L404.3842,127.1071 L405.8753,136.8594 L405.9256,146.6116 L405.7335,156.3638 L404.6308,166.1161 L404.7552,175.8683 L404.3291,185.6205 L404.7015,195.3728 L405,205.125 " fill="none" style="stroke: #383838; stroke-width: 1.0; stroke-dasharray: 5.0,5.0;"/><polygon fill="#F8F8F8" filter="url(#f1zye73x2qfuf)" points="8,33.2969,8,33.072,17.7143,33.0198,27.4286,33.4186,37.1429,33.9501,46.8571,32.6432,56.5714,33.6701,66.2857,33.485,76,33.2969,75.9898,33.2969,76.2458,39.3563,75.8574,45.4156,76.2473,51.475,76.2446,57.5344,76,63.5938,76,64.1422,66.2857,63.1258,56.5714,63.6123,46.8571,63.3585,37.1429,63.5877,27.4286,63.0348,17.7143,63.7206,8,63.5938,7.9102,63.5938,8.1252,57.5344,7.9821,51.475,8.1285,45.4156,7.9845,39.3563,8,33.2969" style="stroke: #383838; stroke-width: 1.5;"/><text fill="#000000" font-family="sans-serif" font-size="14" lengthAdjust="spacingAndGlyphs" textLength="54" x="15" y="53.292">Outlook</text><polygon fill="#F8F8F8" filter="url(#f1zye73x2qfuf)" points="8,204.125,8,203.7644,17.7143,203.8317,27.4286,203.8243,37.1429,204.4061,46.8571,203.5732,56.5714,204.2149,66.2857,203.971,76,204.125,76.0984,204.125,75.9279,210.1844,76.069,216.2438,75.9505,222.3031,76.1751,228.3625,76,234.4219,76,234.6802,66.2857,234.7231,56.5714,234.6996,46.8571,235.1287,37.1429,234.4734,27.4286,234.954,17.7143,235.1263,8,234.4219,7.8094,234.4219,7.9047,228.3625,7.9751,222.3031,7.9981,216.2438,7.9307,210.1844,8,204.125" style="stroke: #383838; stroke-width: 1.5;"/><text fill="#000000" font-family="sans-serif" font-size="14" lengthAdjust="spacingAndGlyphs" textLength="54" x="15" y="224.1201">Outlook</text><polygon fill="#F8F8F8" filter="url(#f1zye73x2qfuf)" points="207.5,33.2969,207.5,33.1202,216.1,33.5279,224.7,33.1445,233.3,33.4372,241.9,33.5058,250.5,33.2969,250.5874,33.2969,250.7236,39.3563,250.2765,45.4156,250.4202,51.475,250.5623,57.5344,250.5,63.5938,250.5,63.4604,241.9,63.3595,233.3,63.7483,224.7,63.8152,216.1,63.7787,207.5,63.5938,207.6555,63.5938,207.5552,57.5344,207.705,51.475,207.3244,45.4156,207.6402,39.3563,207.5,33.2969" style="stroke: #383838; stroke-width: 1.5;"/><text fill="#000000" font-family="sans-serif" font-size="14" lengthAdjust="spacingAndGlyphs" textLength="29" x="214.5" y="53.292">ZCP</text><polygon fill="#F8F8F8" filter="url(#f1zye73x2qfuf)" points="207.5,204.125,207.5,203.8961,216.1,204.2056,224.7,204.1485,233.3,203.9528,241.9,204.1485,250.5,204.125,250.5413,204.125,250.3654,210.1844,250.4739,216.2438,250.3787,222.3031,250.2554,228.3625,250.5,234.4219,250.5,234.6024,241.9,234.2975,233.3,234.3573,224.7,234.613,216.1,234.5227,207.5,234.4219,207.565,234.4219,207.4993,228.3625,207.4945,222.3031,207.6289,216.2438,207.3761,210.1844,207.5,204.125" style="stroke: #383838; stroke-width: 1.5;"/><text fill="#000000" font-family="sans-serif" font-size="14" lengthAdjust="spacingAndGlyphs" textLength="29" x="214.5" y="224.1201">ZCP</text><polygon fill="#F8F8F8" filter="url(#f1zye73x2qfuf)" points="367,33.2969,367,33.4409,377.2857,33.2525,387.5714,33.4439,397.8571,32.9234,408.1429,32.904,418.4286,33.4731,428.7143,33.5642,439,33.2969,439.0511,33.2969,439.2044,39.3563,439.2383,45.4156,438.9268,51.475,439.0355,57.5344,439,63.5938,439,63.6974,428.7143,63.0299,418.4286,63.3839,408.1429,63.6435,397.8571,62.9979,387.5714,63.3398,377.2857,63.3811,367,63.5938,366.8373,63.5938,366.8911,57.5344,367.0789,51.475,366.8309,45.4156,367.1302,39.3563,367,33.2969" style="stroke: #383838; stroke-width: 1.5;"/><text fill="#000000" font-family="sans-serif" font-size="14" lengthAdjust="spacingAndGlyphs" textLength="58" x="374" y="53.292">Webmail</text><polygon fill="#F8F8F8" filter="url(#f1zye73x2qfuf)" points="367,204.125,367,204.3671,377.2857,204.5928,387.5714,204.1587,397.8571,204.588,408.1429,203.8071,418.4286,204.6405,428.7143,204.5925,439,204.125,438.8093,204.125,438.913,210.1844,439.0004,216.2438,439.0618,222.3031,439.096,228.3625,439,234.4219,439,234.5773,428.7143,234.0314,418.4286,234.022,408.1429,234.6274,397.8571,234.7824,387.5714,234.5207,377.2857,235.1153,367,234.4219,367.0833,234.4219,367.1823,228.3625,366.9999,222.3031,367.176,216.2438,366.8988,210.1844,367,204.125" style="stroke: #383838; stroke-width: 1.5;"/><text fill="#000000" font-family="sans-serif" font-size="14" lengthAdjust="spacingAndGlyphs" textLength="58" x="374" y="224.1201">Webmail</text><polygon fill="#383838" points="219,95.5938,218.9091,95.3666,221.013,96.4263,223.0194,97.2423,224.9651,97.9064,226.9222,98.5992,229,99.5938,229.0567,99.7355,227.0056,100.4077,224.9952,101.1816,223.0505,102.12,221.0424,102.8998,219,103.5938,218.9079,103.5016,219.9394,102.9332,220.4581,101.8519,221.3549,101.1486,222.0374,100.2311,223,99.5938,223.1045,99.6983,222.0586,98.6524,221.5073,98.1011,220.5743,97.168,219.8962,96.4899,219,95.5938" style="stroke: #383838; stroke-width: 1.0;"/><path d="M44,99.5938 L44,100.5627 L54.0556,99.7773 L64.1111,100.0356 L74.1667,100.4668 L84.2222,99.3109 L94.2778,98.7324 L104.3333,100.1285 L114.3889,99.8455 L124.4444,99.1844 L134.5,98.8207 L144.5556,100.0449 L154.6111,99.7316 L164.6667,100.2365 L174.7222,99.6517 L184.7778,99.1163 L194.8333,99.871 L204.8889,100.4962 L214.9444,100.4569 L225,99.5938 " fill="none" style="stroke: #383838; stroke-width: 1.0;"/><text fill="#000000" font-family="sans-serif" font-size="13" lengthAdjust="spacingAndGlyphs" textLength="146" x="51" y="94.6606">Request POP3 protocol</text><polygon fill="#383838" points="393,124.7266,392.9086,124.4982,394.9972,125.5195,397.0298,126.4011,398.9666,127.043,401.0744,128.1125,403,128.7266,402.9986,128.723,400.9393,129.3749,398.9591,130.2242,397.0844,131.3376,395.0234,131.985,393,132.7266,393.0493,132.7759,393.9729,132.0995,394.5131,131.0396,395.5084,130.4349,396.272,129.5986,397,128.7266,397.1393,128.8658,396.1331,127.8597,395.4075,127.134,394.6354,126.3619,393.6487,125.3753,393,124.7266" style="stroke: #383838; stroke-width: 1.0;"/><path d="M231,128.7266 L231,128.8981 L240.8824,128.4982 L250.7647,128.2688 L260.6471,129.6366 L270.5294,129.3405 L280.4118,128.48 L290.2941,128.8962 L300.1765,128.0466 L310.0588,129.2771 L319.9412,128.5299 L329.8235,127.7604 L339.7059,129.2552 L349.5882,128.9938 L359.4706,129.357 L369.3529,128.0958 L379.2353,128.5044 L389.1176,127.8741 L399,128.7266 " fill="none" style="stroke: #383838; stroke-width: 1.0;"/><text fill="#000000" font-family="sans-serif" font-size="13" lengthAdjust="spacingAndGlyphs" textLength="140" x="238" y="123.7935">Request Http Protocol</text><polygon fill="#383838" points="242,153.8594,241.9769,153.8016,239.9718,154.5889,238.0863,155.6752,236.0316,156.3383,233.9089,156.8316,232,157.8594,231.9906,157.8359,233.9131,158.4422,235.9942,159.4449,238.0161,160.2997,239.9869,161.0267,242,161.8594,242.1293,161.9887,241.0648,160.9242,240.4733,160.3326,239.5836,159.443,238.8471,158.7064,238,157.8594,237.8896,157.7489,238.7211,156.9805,239.5231,156.1825,240.2859,155.3453,241.3565,154.8159,242,153.8594" style="stroke: #383838; stroke-width: 1.0;"/><path d="M236,157.8594 L236,157.647 L245.8824,157.5726 L255.7647,158.5762 L265.6471,158.0884 L275.5294,158.3963 L285.4118,157.2657 L295.2941,157.2949 L305.1765,157.4109 L315.0588,158.0338 L324.9412,157.9488 L334.8235,156.8759 L344.7059,158.1619 L354.5882,157.6053 L364.4706,158.7904 L374.3529,157.6527 L384.2353,158.2123 L394.1176,156.8846 L404,157.8594 " fill="none" style="stroke: #383838; stroke-width: 1.0; stroke-dasharray: 2.0,2.0;"/><text fill="#000000" font-family="sans-serif" font-size="13" lengthAdjust="spacingAndGlyphs" textLength="150" x="248" y="152.9263">Response Http Protocol</text><polygon fill="#383838" points="55,182.9922,54.9443,182.853,53.0678,183.9617,50.9623,184.498,49.0384,185.4883,46.9119,185.972,45,186.9922,45.007,187.0096,47.0763,187.983,48.9355,188.431,50.9778,189.3368,52.9658,190.1067,55,190.9922,55.1681,191.1602,54.3016,190.2938,53.4672,189.4593,52.5454,188.5375,51.852,187.8442,51,186.9922,50.9716,186.9638,51.7841,186.1763,52.7519,185.544,53.536,184.7282,54.0334,183.6256,55,182.9922" style="stroke: #383838; stroke-width: 1.0;"/><path d="M49,186.9922 L49,187.917 L59.0556,186.1503 L69.1111,186.4303 L79.1667,187.8795 L89.2222,186.951 L99.2778,186.8455 L109.3333,186.7974 L119.3889,186.0139 L129.4444,187.0673 L139.5,186.4654 L149.5556,186.7167 L159.6111,187.4448 L169.6667,187.711 L179.7222,187.4336 L189.7778,186.6246 L199.8333,187.2738 L209.8889,186.2963 L219.9444,187.6175 L230,186.9922 " fill="none" style="stroke: #383838; stroke-width: 1.0; stroke-dasharray: 2.0,2.0;"/><text fill="#000000" font-family="sans-serif" font-size="13" lengthAdjust="spacingAndGlyphs" textLength="163" x="61" y="182.0591">Response POP3 response</text><!--
@startuml
skinparam monochrome true
skinparam handwritten true
Title: The conceptual flow of ZCP

Outlook->ZCP: Request POP3 protocol
ZCP->Webmail: Request Http Protocol
Webmail- ->ZCP:Response Http Protocol
ZCP- ->Outlook:Response POP3 response
@enduml

PlantUML version 1.2017.18beta10(Unknown compile time)
(GPL source distribution)
Java Runtime: Java(TM) SE Runtime Environment
JVM: Java HotSpot(TM) 64-Bit Server VM
Java Version: 1.7.0_25-b15
Operating System: Linux
Default Encoding: UTF-8
Language: en
Country: US
--></g></svg>