<?xml version="1.0" encoding="UTF-8" standalone="no"?><svg xmlns="http://www.w3.org/2000/svg" xmlns:xlink="http://www.w3.org/1999/xlink" contentScriptType="application/ecmascript" contentStyleType="text/css" height="540px" preserveAspectRatio="none" style="width:690px;height:540px;" version="1.1" viewBox="0 0 690 540" width="690px" zoomAndPan="magnify"><defs><filter height="300%" id="f1kjiqhjrrm83c" width="300%" x="-1" y="-1"><feGaussianBlur result="blurOut" stdDeviation="2.0"/><feColorMatrix in="blurOut" result="blurOut2" type="matrix" values="0 0 0 0 0 0 0 0 0 0 0 0 0 0 0 0 0 0 .4 0"/><feOffset dx="4.0" dy="4.0" in="blurOut2" result="blurOut3"/><feBlend in="SourceGraphic" in2="blurOut3" mode="normal"/></filter></defs><g><text fill="#000000" font-family="sans-serif" font-size="14" font-weight="bold" lengthAdjust="spacingAndGlyphs" textLength="155" x="268.5" y="22.9951">Interface Secenario</text><polygon fill="#FFFFFF" filter="url(#f1kjiqhjrrm83c)" points="13,260.3906,13,261.073,22.9403,260.6746,32.8806,259.7637,42.8209,260.2202,52.7612,260.462,62.7015,259.8646,72.6418,260.3366,82.5821,260.4195,92.5224,260.3038,102.4627,260.9786,112.403,260.7716,122.3433,260.3137,132.2836,259.8654,142.2239,260.6273,152.1642,260.6733,162.1045,260.9393,172.0448,260.4863,181.9851,261.1132,191.9254,260.4307,201.8657,260.6163,211.806,260.109,221.7463,259.8818,231.6866,260.1134,241.6269,259.8866,251.5672,260.8155,261.5075,260.1818,271.4478,260.1085,281.3881,260.2287,291.3284,260.4907,301.2687,259.9864,311.209,260.6842,321.1493,260.2096,331.0896,261.0389,341.0299,260.9042,350.9701,260.6291,360.9104,260.1423,370.8507,260.8271,380.791,261.0656,390.7313,260.2845,400.6716,261.0461,410.6119,260.2395,420.5522,260.3049,430.4925,260.6536,440.4328,260.7713,450.3731,260.8796,460.3134,260.3716,470.2537,259.8464,480.194,260.0383,490.1343,261.0758,500.0746,259.8921,510.0149,259.8954,519.9552,260.8566,529.8955,260.4051,539.8358,260.3775,549.7761,259.9529,559.7164,260.837,569.6567,259.9705,579.597,260.2132,589.5373,261.0683,599.4776,260.7832,609.4179,261.1386,619.3582,260.7974,629.2985,260.1228,639.2388,260.1486,649.1791,260.3684,659.1194,259.795,669.0597,261.0931,679,260.3906,679.587,260.3906,679.7473,270.6725,678.9653,280.9543,678.7118,291.2362,678.9145,301.518,678.9179,311.7999,678.7152,322.0817,679.3241,332.3636,679.2851,342.6454,678.6581,352.9273,679.3656,363.2091,679.2351,373.491,678.5682,383.7728,679,394.0547,679,393.3408,669.0597,393.4598,659.1194,393.4668,649.1791,394.1404,639.2388,394.1342,629.2985,394.0804,619.3582,394.3959,609.4179,394.2951,599.4776,393.8003,589.5373,393.7682,579.597,394.402,569.6567,393.3874,559.7164,394.3931,549.7761,393.3363,539.8358,394.0152,529.8955,394.1322,519.9552,394.0173,510.0149,394.6037,500.0746,393.5733,490.1343,394.045,480.194,394.6569,470.2537,393.4351,460.3134,393.6643,450.3731,393.8479,440.4328,394.4257,430.4925,393.4356,420.5522,394.6348,410.6119,393.8574,400.6716,394.4432,390.7313,393.7629,380.791,394.7102,370.8507,394.455,360.9104,393.9019,350.9701,394.2531,341.0299,394.3006,331.0896,394.7095,321.1493,393.7074,311.209,394.3824,301.2687,394.2944,291.3284,394.5146,281.3881,393.3411,271.4478,394.479,261.5075,394.5746,251.5672,394.7287,241.6269,394.3139,231.6866,394.0756,221.7463,394.1262,211.806,394.2573,201.8657,393.7574,191.9254,393.848,181.9851,394.4437,172.0448,393.7948,162.1045,393.824,152.1642,394.7146,142.2239,393.9872,132.2836,394.0544,122.3433,394.1484,112.403,393.8819,102.4627,394.6827,92.5224,393.748,82.5821,394.6566,72.6418,393.9081,62.7015,394.4064,52.7612,393.8423,42.8209,393.9965,32.8806,393.7245,22.9403,393.5476,13,394.0547,12.6576,394.0547,13.2478,383.7728,12.9402,373.491,12.5411,363.2091,12.6745,352.9273,13.3449,342.6454,12.6643,332.3636,13.2016,322.0817,13.0189,311.7999,12.8462,301.518,12.5281,291.2362,12.3038,280.9543,13.0823,270.6725,13,260.3906" style="stroke: #000000; stroke-width: 2.0;"/><polygon fill="#FFFFFF" filter="url(#f1kjiqhjrrm83c)" points="13,408.0547,13,408.4494,22.9074,407.7384,32.8148,407.7839,42.7222,407.7808,52.6296,408.6074,62.537,407.4539,72.4444,407.8083,82.3519,407.458,92.2593,408.1043,102.1667,407.9032,112.0741,408.1215,121.9815,407.7579,131.8889,408.3115,141.7963,408.2853,151.7037,407.8615,161.6111,408.3286,171.5185,407.4226,181.4259,408.4468,191.3333,408.2743,201.2407,407.3466,211.1481,407.8861,221.0556,408.7551,230.963,408.5918,240.8704,408.7489,250.7778,408.1528,260.6852,408.113,270.5926,408.4,280.5,408.0547,279.7622,408.0547,281.2179,417.3078,280.1789,426.5609,281.1033,435.8141,280.3477,445.0672,280.5,454.3203,280.5,454.5644,270.5926,453.8609,260.6852,453.8774,250.7778,454.881,240.8704,453.6026,230.963,454.1451,221.0556,453.9108,211.1481,454.4195,201.2407,454.6702,191.3333,453.9182,181.4259,454.3629,171.5185,453.9038,161.6111,453.8167,151.7037,454.8562,141.7963,455.0461,131.8889,454.0942,121.9815,453.6931,112.0741,453.9278,102.1667,454.0942,92.2593,454.214,82.3519,454.9464,72.4444,453.6447,62.537,453.8776,52.6296,453.7671,42.7222,453.9596,32.8148,454.7586,22.9074,455.0286,13,454.3203,12.9217,454.3203,13.2345,445.0672,12.3165,435.8141,13.3087,426.5609,13.5961,417.3078,13,408.0547" style="stroke: #000000; stroke-width: 2.0;"/><path d="M59,68.5938 L58.3368,68.5938 L59.2071,78.637 L59.6759,88.6802 L58.7541,98.7235 L58.9073,108.7667 L59.9273,118.81 L59.9977,128.8532 L59.7978,138.8964 L58.9286,148.9397 L59.9205,158.9829 L58.8925,169.0262 L58.6433,179.0694 L58.226,189.1126 L59.052,199.1559 L59.0454,209.1991 L58.5594,219.2424 L59.0049,229.2856 L58.6501,239.3289 L59.8149,249.3721 L59.6482,259.4153 L59.0518,269.4586 L59.1602,279.5018 L58.4986,289.5451 L59.6406,299.5883 L59.6456,309.6315 L59.3461,319.6748 L58.1132,329.718 L59.7914,339.7613 L58.444,349.8045 L58.1607,359.8477 L58.9506,369.891 L59.3995,379.9342 L59.842,389.9775 L59.818,400.0207 L59.625,410.064 L58.8455,420.1072 L59.4694,430.1504 L59.4373,440.1937 L58.7153,450.2369 L59.8569,460.2802 L59.6018,470.3234 L58.9094,480.3666 L58.432,490.4099 L59,500.4531 " fill="none" style="stroke: #383838; stroke-width: 1.0; stroke-dasharray: 5.0,5.0;"/><path d="M246.5,68.5938 L246.4526,68.5938 L245.8044,78.637 L245.8546,88.6802 L246.5014,98.7235 L247.2084,108.7667 L246.6098,118.81 L247.1917,128.8532 L246.1626,138.8964 L247.1057,148.9397 L247.4521,158.9829 L246.9346,169.0262 L246.8092,179.0694 L247.2876,189.1126 L247.436,199.1559 L247.357,209.1991 L247.3865,219.2424 L246.5445,229.2856 L245.8151,239.3289 L246.6362,249.3721 L246.1656,259.4153 L246.2848,269.4586 L247.2846,279.5018 L247.4903,289.5451 L246.9697,299.5883 L247.1234,309.6315 L247.3674,319.6748 L246.1642,329.718 L247.3153,339.7613 L246.0264,349.8045 L247.2739,359.8477 L247.3994,369.891 L246.2562,379.9342 L245.7034,389.9775 L247.1667,400.0207 L246.2406,410.064 L246.4849,420.1072 L247.1192,430.1504 L246.2409,440.1937 L246.1837,450.2369 L246.9436,460.2802 L245.625,470.3234 L247.4492,480.3666 L247.2654,490.4099 L246.5,500.4531 " fill="none" style="stroke: #383838; stroke-width: 1.0; stroke-dasharray: 5.0,5.0;"/><path d="M631,68.5938 L631.3377,68.5938 L631.7647,78.637 L630.563,88.6802 L631.7199,98.7235 L630.0211,108.7667 L630.815,118.81 L631.0502,128.8532 L630.2981,138.8964 L631.7353,148.9397 L630.5478,158.9829 L631.9875,169.0262 L631.2466,179.0694 L631.6351,189.1126 L630.583,199.1559 L631.8915,209.1991 L630.2887,219.2424 L631.9247,229.2856 L630.0043,239.3289 L631.9625,249.3721 L630.7246,259.4153 L630.2508,269.4586 L631.6621,279.5018 L630.7785,289.5451 L630.9889,299.5883 L630.7665,309.6315 L631.7731,319.6748 L630.9605,329.718 L630.6553,339.7613 L631.4773,349.8045 L630.0476,359.8477 L630.7486,369.891 L630.9715,379.9342 L631.623,389.9775 L631.1364,400.0207 L630.2874,410.064 L631.0351,420.1072 L631.9222,430.1504 L630.1899,440.1937 L631.2136,450.2369 L631.19,460.2802 L630.5216,470.3234 L631.7528,480.3666 L630.8692,490.4099 L631,500.4531 " fill="none" style="stroke: #383838; stroke-width: 1.0; stroke-dasharray: 5.0,5.0;"/><polygon fill="#F8F8F8" filter="url(#f1kjiqhjrrm83c)" points="23,33.2969,23,33.3915,32.7143,32.8796,42.4286,32.6182,52.1429,33.4007,61.8571,33.6763,71.5714,32.7062,81.2857,32.8387,91,33.2969,90.8769,33.2969,90.9308,39.3563,90.7919,45.4156,91.2221,51.475,90.8744,57.5344,91,63.5938,91,63.3047,81.2857,63.3959,71.5714,63.1844,61.8571,62.9171,52.1429,63.2912,42.4286,64.0706,32.7143,63.1395,23,63.5938,22.813,63.5938,22.9498,57.5344,22.905,51.475,22.9101,45.4156,22.9502,39.3563,23,33.2969" style="stroke: #383838; stroke-width: 1.5;"/><text fill="#000000" font-family="sans-serif" font-size="14" lengthAdjust="spacingAndGlyphs" textLength="54" x="30" y="53.292">Outlook</text><polygon fill="#F8F8F8" filter="url(#f1kjiqhjrrm83c)" points="23,499.4531,23,499.6697,32.7143,499.4179,42.4286,500.0463,52.1429,499.1447,61.8571,499.0353,71.5714,498.9411,81.2857,499.061,91,499.4531,91.1653,499.4531,90.9871,505.5125,90.8253,511.5719,91.2222,517.6313,90.9165,523.6906,91,529.75,91,529.5448,81.2857,529.7594,71.5714,529.0752,61.8571,529.4969,52.1429,529.2828,42.4286,530.2635,32.7143,529.8193,23,529.75,22.9007,529.75,22.8614,523.6906,23.1004,517.6313,23.011,511.5719,23.1789,505.5125,23,499.4531" style="stroke: #383838; stroke-width: 1.5;"/><text fill="#000000" font-family="sans-serif" font-size="14" lengthAdjust="spacingAndGlyphs" textLength="54" x="30" y="519.4482">Outlook</text><polygon fill="#F8F8F8" filter="url(#f1kjiqhjrrm83c)" points="223.5,33.2969,223.5,33.2899,232.1,33.1168,240.7,33.1963,249.3,33.5372,257.9,33.1403,266.5,33.2969,266.393,33.2969,266.3395,39.3563,266.6418,45.4156,266.4355,51.475,266.5616,57.5344,266.5,63.5938,266.5,63.8141,257.9,63.4581,249.3,63.3689,240.7,63.4923,232.1,63.8077,223.5,63.5938,223.281,63.5938,223.5191,57.5344,223.5954,51.475,223.5084,45.4156,223.2866,39.3563,223.5,33.2969" style="stroke: #383838; stroke-width: 1.5;"/><text fill="#000000" font-family="sans-serif" font-size="14" lengthAdjust="spacingAndGlyphs" textLength="29" x="230.5" y="53.292">ZCP</text><polygon fill="#F8F8F8" filter="url(#f1kjiqhjrrm83c)" points="223.5,499.4531,223.5,499.6474,232.1,499.6898,240.7,499.6527,249.3,499.4998,257.9,499.3153,266.5,499.4531,266.3667,499.4531,266.4982,505.5125,266.7059,511.5719,266.4247,517.6313,266.3465,523.6906,266.5,529.75,266.5,529.9543,257.9,529.5192,249.3,529.6837,240.7,529.6732,232.1,529.5588,223.5,529.75,223.721,529.75,223.2874,523.6906,223.5962,517.6313,223.5959,511.5719,223.2908,505.5125,223.5,499.4531" style="stroke: #383838; stroke-width: 1.5;"/><text fill="#000000" font-family="sans-serif" font-size="14" lengthAdjust="spacingAndGlyphs" textLength="29" x="230.5" y="519.4482">ZCP</text><polygon fill="#F8F8F8" filter="url(#f1kjiqhjrrm83c)" points="593,33.2969,593,33.5366,603.2857,32.558,613.5714,34.0275,623.8571,33.5815,634.1429,33.6316,644.4286,33.8602,654.7143,33.7665,665,33.2969,665.1913,33.2969,665.1702,39.3563,664.9533,45.4156,665.1055,51.475,664.8807,57.5344,665,63.5938,665,64.0463,654.7143,64.0041,644.4286,64.1965,634.1429,63.1708,623.8571,63.3101,613.5714,63.3885,603.2857,62.9735,593,63.5938,593.0925,63.5938,592.8889,57.5344,592.9814,51.475,593.0587,45.4156,593.028,39.3563,593,33.2969" style="stroke: #383838; stroke-width: 1.5;"/><text fill="#000000" font-family="sans-serif" font-size="14" lengthAdjust="spacingAndGlyphs" textLength="58" x="600" y="53.292">Webmail</text><polygon fill="#F8F8F8" filter="url(#f1kjiqhjrrm83c)" points="593,499.4531,593,500.0823,603.2857,498.7179,613.5714,498.8983,623.8571,499.4048,634.1429,499.7249,644.4286,500.2023,654.7143,499.4486,665,499.4531,664.7807,499.4531,664.9995,505.5125,665.0901,511.5719,665.2346,517.6313,664.8679,523.6906,665,529.75,665,529.2469,654.7143,530.0215,644.4286,529.8798,634.1429,529.4159,623.8571,529.7525,613.5714,530.0233,603.2857,529.5638,593,529.75,592.7901,529.75,593.1172,523.6906,592.8453,517.6313,593.0045,511.5719,593.2391,505.5125,593,499.4531" style="stroke: #383838; stroke-width: 1.5;"/><text fill="#000000" font-family="sans-serif" font-size="14" lengthAdjust="spacingAndGlyphs" textLength="58" x="600" y="519.4482">Webmail</text><polygon fill="#383838" points="235,95.5938,235.0593,95.7419,236.9799,96.3435,238.9944,97.1799,241.0892,98.2167,243.0221,98.8491,245,99.5938,245.0807,99.7954,242.976,100.3338,240.9893,101.167,239.0236,102.0528,237.0649,102.9559,235,103.5938,235.13,103.7238,235.7728,102.7665,236.5964,101.9901,237.4464,101.2402,238.2566,100.4503,239,99.5938,238.8721,99.4659,238.3228,98.9165,237.5036,98.0974,236.5306,97.1243,235.6562,96.25,235,95.5938" style="stroke: #383838; stroke-width: 1.0;"/><path d="M59,99.5938 L59,100.5834 L69.1111,100.5177 L79.2222,98.6675 L89.3333,99.7359 L99.4444,99.7147 L109.5556,100.222 L119.6667,99.6028 L129.7778,99.0975 L139.8889,100.2509 L150,100.2655 L160.1111,99.937 L170.2222,100.1682 L180.3333,99.5316 L190.4444,98.7209 L200.5556,100.2748 L210.6667,98.9457 L220.7778,99.1812 L230.8889,99.7673 L241,99.5938 " fill="none" style="stroke: #383838; stroke-width: 1.0;"/><text fill="#000000" font-family="sans-serif" font-size="13" lengthAdjust="spacingAndGlyphs" textLength="164" x="66" y="94.6606">POP3:USER &lt;username&gt;</text><polygon fill="#383838" points="235,124.7266,235.0055,124.7404,237.0521,125.6568,238.9518,126.2061,241.037,127.2191,242.9132,127.7097,245,128.7266,245.0522,128.8571,242.9212,129.3296,240.9356,130.1655,239.0478,131.2461,237.0552,132.0646,235,132.7266,234.9393,132.6658,235.6245,131.7511,236.7567,131.2833,237.3281,130.2547,238.2683,129.5948,239,128.7266,238.8418,128.5684,238.0484,127.775,237.3248,127.0514,236.6369,126.3634,235.9253,125.6519,235,124.7266" style="stroke: #383838; stroke-width: 1.0;"/><path d="M59,128.7266 L59,128.1763 L69.1111,128.9557 L79.2222,129.4007 L89.3333,129.1498 L99.4444,129.328 L109.5556,129.7157 L119.6667,129.5235 L129.7778,129.7015 L139.8889,128.4471 L150,129.0965 L160.1111,128.8629 L170.2222,128.6321 L180.3333,129.708 L190.4444,128.599 L200.5556,128.2867 L210.6667,128.1823 L220.7778,128.4553 L230.8889,127.8806 L241,128.7266 " fill="none" style="stroke: #383838; stroke-width: 1.0;"/><text fill="#000000" font-family="sans-serif" font-size="13" lengthAdjust="spacingAndGlyphs" textLength="159" x="66" y="123.7935">POP3:PASS &lt;password&gt;</text><polygon fill="#383838" points="619,153.8594,618.9224,153.6653,620.9454,154.5229,623.0395,155.5581,625.0491,156.382,627.0323,157.1402,629,157.8594,629.0241,157.9196,626.9405,158.5106,625.0144,159.4955,623.002,160.2643,621.0458,161.1739,619,161.8594,618.9959,161.8553,619.8905,161.1499,620.4769,160.1363,621.2952,159.3546,622.2146,158.674,623,157.8594,622.9823,157.8417,622.3675,157.2269,621.2307,156.0901,620.5921,155.4515,619.776,154.6354,619,153.8594" style="stroke: #383838; stroke-width: 1.0;"/><path d="M247,157.8594 L247,158.826 L256.9474,158.1938 L266.8947,158.538 L276.8421,158.2957 L286.7895,158.5475 L296.7368,158.5957 L306.6842,158.528 L316.6316,157.9458 L326.5789,157.45 L336.5263,157.6657 L346.4737,157.369 L356.4211,158.0756 L366.3684,158.747 L376.3158,157.2518 L386.2632,157.6191 L396.2105,158.7112 L406.1579,158.7019 L416.1053,157.971 L426.0526,157.2555 L436,156.8706 L445.9474,157.1274 L455.8947,157.7029 L465.8421,157.859 L475.7895,157.8045 L485.7368,158.4287 L495.6842,158.7642 L505.6316,158.5106 L515.5789,157.9789 L525.5263,157.8879 L535.4737,158.3211 L545.4211,158.6872 L555.3684,157.2797 L565.3158,158.6709 L575.2632,157.4226 L585.2105,157.187 L595.1579,158.459 L605.1053,157.2512 L615.0526,157.8004 L625,157.8594 " fill="none" style="stroke: #383838; stroke-width: 1.0;"/><text fill="#000000" font-family="sans-serif" font-size="13" lengthAdjust="spacingAndGlyphs" textLength="129" x="254" y="152.9263">HTTP request logout</text><polygon fill="#383838" points="619,182.9922,619.0413,183.0953,621.0437,183.9015,623.0688,184.7642,625.0394,185.4908,626.9287,186.0139,629,186.9922,628.9791,186.94,626.9749,187.7294,625.0425,188.6984,623.0705,189.5686,620.9075,189.961,619,190.9922,618.948,190.9402,619.9371,190.3292,620.5578,189.35,621.3561,188.5483,622.0578,187.6499,623,186.9922,623.1459,187.1381,622.0245,186.0167,621.2959,185.288,620.4335,184.4257,619.9683,183.9605,619,182.9922" style="stroke: #383838; stroke-width: 1.0;"/><path d="M247,186.9922 L247,186.1095 L256.9474,186.1799 L266.8947,186.2858 L276.8421,187.7564 L286.7895,186.3141 L296.7368,186.5172 L306.6842,187.941 L316.6316,186.4217 L326.5789,186.9423 L336.5263,186.0564 L346.4737,187.3105 L356.4211,187.8889 L366.3684,186.0807 L376.3158,186.254 L386.2632,186.7565 L396.2105,186.2499 L406.1579,186.9823 L416.1053,187.6843 L426.0526,187.0778 L436,187.5841 L445.9474,187.3623 L455.8947,187.9227 L465.8421,186.3825 L475.7895,186.7078 L485.7368,186.7122 L495.6842,186.6935 L505.6316,187.8871 L515.5789,186.2648 L525.5263,187.2054 L535.4737,187.7029 L545.4211,187.9686 L555.3684,187.5434 L565.3158,187.6341 L575.2632,186.2454 L585.2105,186.1373 L595.1579,187.2963 L605.1053,186.1328 L615.0526,187.2788 L625,186.9922 " fill="none" style="stroke: #383838; stroke-width: 1.0;"/><text fill="#000000" font-family="sans-serif" font-size="13" lengthAdjust="spacingAndGlyphs" textLength="258" x="254" y="182.0591">HTTP request login(username,password)</text><polygon fill="#383838" points="619,212.125,618.943,211.9826,620.9696,212.8491,622.9254,213.5384,624.9275,214.3438,626.957,215.2175,629,216.125,629.0075,216.1437,627.0588,217.072,624.9192,217.523,623.001,218.5274,621.0613,219.4783,619,220.125,619.1561,220.2811,619.7235,219.2485,620.4745,218.3995,621.4753,217.8003,622.1836,216.9086,623,216.125,622.8983,216.0233,622.0444,215.1694,621.3932,214.5182,620.7142,213.8392,619.7463,212.8713,619,212.125" style="stroke: #383838; stroke-width: 1.0;"/><path d="M247,216.125 L247,215.4324 L256.9474,216.0553 L266.8947,215.9166 L276.8421,215.2517 L286.7895,216.5715 L296.7368,215.2689 L306.6842,215.1938 L316.6316,217.0936 L326.5789,216.8373 L336.5263,215.4564 L346.4737,215.1321 L356.4211,216.2701 L366.3684,216.2871 L376.3158,215.1896 L386.2632,215.5653 L396.2105,215.2931 L406.1579,216.8154 L416.1053,215.6921 L426.0526,215.7822 L436,216.2726 L445.9474,216.0652 L455.8947,216.4566 L465.8421,216.3698 L475.7895,215.2685 L485.7368,215.1922 L495.6842,216.7349 L505.6316,216.356 L515.5789,216.0963 L525.5263,215.4051 L535.4737,216.0422 L545.4211,215.2546 L555.3684,215.4901 L565.3158,216.6731 L575.2632,216.8278 L585.2105,216.0494 L595.1579,216.263 L605.1053,215.8968 L615.0526,215.4204 L625,216.125 " fill="none" style="stroke: #383838; stroke-width: 1.0;"/><text fill="#000000" font-family="sans-serif" font-size="13" lengthAdjust="spacingAndGlyphs" textLength="360" x="254" y="211.1919">HTTP request searchRequest(query,searchRequestLimit)</text><polygon fill="#383838" points="235,241.2578,234.9913,241.2361,236.967,241.9753,238.9121,242.638,240.9178,243.4522,242.9614,244.3614,245,245.2578,244.9502,245.1334,242.9519,245.9376,241.0899,247.0826,238.9666,247.5742,237.0704,248.6338,235,249.2578,235.013,249.2708,235.6281,248.2859,236.6144,247.6722,237.4451,246.903,238.048,245.9059,239,245.2578,238.9557,245.2135,238.2669,244.5247,237.4377,243.6955,236.6855,242.9433,235.9212,242.1791,235,241.2578" style="stroke: #383838; stroke-width: 1.0;"/><path d="M59,245.2578 L59,245.6706 L69.1111,245.3431 L79.2222,244.5651 L89.3333,245.9287 L99.4444,244.8418 L109.5556,245.1637 L119.6667,245.9914 L129.7778,245.6601 L139.8889,244.6028 L150,244.8961 L160.1111,244.4575 L170.2222,246.1386 L180.3333,246.0682 L190.4444,246.1625 L200.5556,245.1122 L210.6667,245.82 L220.7778,245.1534 L230.8889,244.8792 L241,245.2578 " fill="none" style="stroke: #383838; stroke-width: 1.0;"/><text fill="#000000" font-family="sans-serif" font-size="13" lengthAdjust="spacingAndGlyphs" textLength="68" x="66" y="240.3247">POP3:UIDL</text><polygon fill="none" points="13,260.3906,13,259.9097,22.9403,260.6912,32.8806,260.1591,42.8209,260.4723,52.7612,259.7954,62.7015,259.8112,72.6418,259.9879,82.5821,259.8124,92.5224,260.2673,102.4627,260.4713,112.403,260.2318,122.3433,259.6553,132.2836,260.6892,142.2239,259.9869,152.1642,260.3207,162.1045,260.508,172.0448,259.6977,181.9851,260.996,191.9254,260.6559,201.8657,260.6661,211.806,260.6214,221.7463,260.3876,231.6866,259.9282,241.6269,260.1298,251.5672,260.5299,261.5075,260.9682,271.4478,260.065,281.3881,260.2696,291.3284,260.1166,301.2687,260.6528,311.209,259.823,321.1493,260.0934,331.0896,260.9543,341.0299,260.8344,350.9701,260.6072,360.9104,260.1228,370.8507,261.0751,380.791,259.6579,390.7313,260.984,400.6716,260.5004,410.6119,260.3175,420.5522,260.2023,430.4925,261.074,440.4328,260.5126,450.3731,259.9503,460.3134,261.0532,470.2537,260.5551,480.194,260.233,490.1343,260.2322,500.0746,260.9283,510.0149,259.8816,519.9552,259.9612,529.8955,260.2913,539.8358,259.9072,549.7761,260.0243,559.7164,260.0548,569.6567,260.5082,579.597,260.4013,589.5373,260.0684,599.4776,260.1336,609.4179,259.9732,619.3582,260.794,629.2985,260.8629,639.2388,260.4621,649.1791,260.5429,659.1194,259.6745,669.0597,260.6009,679,260.3906,678.7103,260.3906,679.6711,270.6725,678.8965,280.9543,678.8361,291.2362,679.2653,301.518,678.5382,311.7999,678.3276,322.0817,678.5126,332.3636,678.2521,342.6454,678.4941,352.9273,678.5567,363.2091,679.059,373.491,678.7359,383.7728,679,394.0547,679,394.3276,669.0597,394.36,659.1194,393.3161,649.1791,394.5593,639.2388,393.6722,629.2985,393.682,619.3582,394.3452,609.4179,394.6362,599.4776,394.6359,589.5373,394.4524,579.597,394.6664,569.6567,393.9401,559.7164,394.1024,549.7761,393.829,539.8358,393.8124,529.8955,393.3585,519.9552,394.0393,510.0149,393.3794,500.0746,393.6997,490.1343,393.4063,480.194,394.6626,470.2537,393.8894,460.3134,393.8078,450.3731,394.0044,440.4328,394.432,430.4925,393.3963,420.5522,394.5096,410.6119,393.729,400.6716,394.1142,390.7313,394.7151,380.791,394.1338,370.8507,394.6485,360.9104,393.5481,350.9701,394.6643,341.0299,393.4675,331.0896,393.5882,321.1493,393.7228,311.209,394.326,301.2687,394.3552,291.3284,393.3348,281.3881,393.8306,271.4478,393.5202,261.5075,394.3325,251.5672,393.9227,241.6269,394.5889,231.6866,393.7092,221.7463,393.3397,211.806,394.7229,201.8657,393.8361,191.9254,394.7961,181.9851,393.4976,172.0448,394.5894,162.1045,394.6913,152.1642,394.728,142.2239,393.6894,132.2836,393.8061,122.3433,393.4357,112.403,393.4645,102.4627,394.2889,92.5224,394.0144,82.5821,394.2163,72.6418,394.7284,62.7015,394.7915,52.7612,393.6977,42.8209,394.1955,32.8806,394.5095,22.9403,393.3566,13,394.0547,13.5886,394.0547,12.3136,383.7728,13.0013,373.491,12.7881,363.2091,13.0476,352.9273,12.8945,342.6454,12.9937,332.3636,13.272,322.0817,13.0659,311.7999,12.4313,301.518,12.2655,291.2362,13.2699,280.9543,13.6637,270.6725,13,260.3906" style="stroke: #000000; stroke-width: 2.0;"/><polygon fill="#EEEEEE" points="13,260.3906,13,260.0294,22.625,260.6915,32.25,260.3371,41.875,260.593,51.5,260.2454,61.125,260.7072,70.75,260.3699,80.375,260.776,90,260.3906,90.0053,260.3906,90.1693,261.7906,89.9905,263.1906,89.8032,264.5906,90.2058,265.9906,90,267.3906,90.1224,267.5131,87.8451,269.2358,85.9522,271.3428,84.0623,273.4529,82.09,275.4806,80,277.3906,80,277.9019,70.4286,277.3015,60.8571,277.049,51.2857,276.9323,41.7143,277.2594,32.1429,277.9733,22.5714,277.5398,13,277.3906,13.0681,277.3906,12.8655,273.9906,13.2191,270.5906,12.9603,267.1906,12.9964,263.7906,13,260.3906" style="stroke: #000000; stroke-width: 2.0;"/><text fill="#000000" font-family="sans-serif" font-size="13" font-weight="bold" lengthAdjust="spacingAndGlyphs" textLength="32" x="28" y="273.4575">loop</text><polygon fill="#383838" points="235,294.5234,234.9644,294.4345,236.9491,295.1963,239.0628,296.2804,241.0504,297.0495,243.054,297.8584,245,298.5234,245.063,298.6809,243.0616,299.4774,240.9203,299.9241,239.0576,301.0674,237.0518,301.853,235,302.5234,235.1567,302.6801,235.737,301.6604,236.6258,300.9492,237.3667,300.0902,238.3752,299.4986,239,298.5234,239.088,298.6115,238.1728,297.6962,237.5269,297.0504,236.5096,296.0331,235.6409,295.1644,235,294.5234" style="stroke: #383838; stroke-width: 1.0;"/><path d="M59,298.5234 L59,298.7636 L69.1111,299.2049 L79.2222,298.717 L89.3333,299.1569 L99.4444,299.1001 L109.5556,298.5676 L119.6667,298.4834 L129.7778,298.8907 L139.8889,298.3862 L150,298.8441 L160.1111,298.7601 L170.2222,298.8019 L180.3333,298.641 L190.4444,298.1723 L200.5556,298.2499 L210.6667,298.2192 L220.7778,298.2218 L230.8889,299.3129 L241,298.5234 " fill="none" style="stroke: #383838; stroke-width: 1.0;"/><text fill="#000000" font-family="sans-serif" font-size="13" lengthAdjust="spacingAndGlyphs" textLength="114" x="66" y="293.5903">POP3:RETR &lt;uid&gt;</text><polygon fill="#383838" points="619,323.6563,618.9684,323.5773,620.9465,324.3224,623.0677,325.4254,624.9529,325.9386,627.0786,327.0528,629,327.6563,628.954,327.5413,626.9334,328.2897,624.9509,329.1335,623.0705,330.2324,621.0395,330.955,619,331.6563,619.0066,331.6629,619.8999,330.9561,620.4985,329.9547,621.4229,329.2791,622.3084,328.5646,623,327.6563,622.8241,327.4803,622.359,327.0152,621.5303,326.1866,620.7303,325.3866,619.9551,324.6113,619,323.6563" style="stroke: #383838; stroke-width: 1.0;"/><path d="M247,327.6563 L247,328.0919 L256.9474,326.9642 L266.8947,327.4214 L276.8421,327.7539 L286.7895,328.0506 L296.7368,328.0265 L306.6842,328.537 L316.6316,327.937 L326.5789,327.7869 L336.5263,327.9353 L346.4737,327.2169 L356.4211,327.6168 L366.3684,328.5286 L376.3158,328.3723 L386.2632,327.2224 L396.2105,328.2372 L406.1579,327.3847 L416.1053,328.5092 L426.0526,327.5062 L436,328.2625 L445.9474,327.2247 L455.8947,328.4923 L465.8421,327.9835 L475.7895,328.6109 L485.7368,327.1975 L495.6842,326.9824 L505.6316,327.1154 L515.5789,328.4108 L525.5263,328.1222 L535.4737,328.4981 L545.4211,327.6836 L555.3684,327.8103 L565.3158,327.8928 L575.2632,328.2618 L585.2105,327.015 L595.1579,328.2421 L605.1053,328.3758 L615.0526,327.1365 L625,327.6563 " fill="none" style="stroke: #383838; stroke-width: 1.0;"/><text fill="#000000" font-family="sans-serif" font-size="13" lengthAdjust="spacingAndGlyphs" textLength="178" x="254" y="322.7231">HTTP request download(uid)</text><path d="M247,356.7891 L247.0699,356.9638 L249.0613,356.1423 L250.9263,355.0049 L252.9269,354.2064 L255.0132,353.6219 L257,352.7891 " fill="none" style="stroke: #383838; stroke-width: 1.0;"/><path d="M247,356.7891 L247.0106,356.8156 L249.0358,357.6785 L251.0672,358.557 L253.0237,359.2484 L255.0148,360.0259 L257,360.7891 " fill="none" style="stroke: #383838; stroke-width: 1.0;"/><path d="M247,356.7891 L247,355.9066 L257.0789,357.7038 L267.1579,356.9086 L277.2368,356.0115 L287.3158,357.0037 L297.3947,357.0024 L307.4737,357.5464 L317.5526,356.3096 L327.6316,356.4389 L337.7105,357.4995 L347.7895,357.6241 L357.8684,356.4871 L367.9474,357.2494 L378.0263,357.7663 L388.1053,357.4576 L398.1842,356.6232 L408.2632,356.8433 L418.3421,356.2256 L428.4211,357.0936 L438.5,356.3083 L448.5789,356.5482 L458.6579,355.9889 L468.7368,357.6751 L478.8158,356.662 L488.8947,356.5486 L498.9737,357.7527 L509.0526,357.076 L519.1316,355.9146 L529.2105,356.1761 L539.2895,355.7901 L549.3684,357.5398 L559.4474,357.1978 L569.5263,357.6656 L579.6053,357.2765 L589.6842,356.1767 L599.7632,356.1096 L609.8421,357.0856 L619.9211,357.3262 L630,356.7891 " fill="none" style="stroke: #383838; stroke-width: 1.0; stroke-dasharray: 2.0,2.0;"/><text fill="#000000" font-family="sans-serif" font-size="13" lengthAdjust="spacingAndGlyphs" textLength="122" x="264" y="351.856">HTTP Content body</text><path d="M59,385.9219 L58.9939,385.9065 L60.9614,385.0254 L63.0485,384.443 L65.0499,383.6467 L67.0374,382.8154 L69,381.9219 " fill="none" style="stroke: #383838; stroke-width: 1.0;"/><path d="M59,385.9219 L59.0923,386.1527 L61.0666,386.8884 L63.0383,387.6176 L65.053,388.4545 L66.9599,389.0217 L69,389.9219 " fill="none" style="stroke: #383838; stroke-width: 1.0;"/><path d="M59,385.9219 L59,386.8467 L68.8421,385.2496 L78.6842,386.6392 L88.5263,386.0631 L98.3684,385.3242 L108.2105,386.5372 L118.0526,385.4634 L127.8947,385.9415 L137.7368,386.1583 L147.5789,385.0567 L157.4211,386.8479 L167.2632,386.0567 L177.1053,386.1294 L186.9474,386.6839 L196.7895,385.191 L206.6316,386.1423 L216.4737,385.0782 L226.3158,386.296 L236.1579,386.6299 L246,385.9219 " fill="none" style="stroke: #383838; stroke-width: 1.0; stroke-dasharray: 2.0,2.0;"/><text fill="#000000" font-family="sans-serif" font-size="13" lengthAdjust="spacingAndGlyphs" textLength="97" x="76" y="380.9888">POP3 response</text><polygon fill="none" points="13,408.0547,13,408.655,22.9074,407.4311,32.8148,408.1716,42.7222,407.8903,52.6296,408.0671,62.537,407.3951,72.4444,408.0078,82.3519,407.7056,92.2593,408.6021,102.1667,407.5077,112.0741,408.7205,121.9815,407.4286,131.8889,407.6462,141.7963,408.0492,151.7037,408.3114,161.6111,407.7908,171.5185,408.6993,181.4259,407.7411,191.3333,408.7528,201.2407,408.5242,211.1481,407.7981,221.0556,408.3166,230.963,407.6776,240.8704,407.3611,250.7778,407.8998,260.6852,408.0043,270.5926,408.4799,280.5,408.0547,280.4616,408.0547,281.0715,417.3078,280.4329,426.5609,279.9895,435.8141,279.8435,445.0672,280.5,454.3203,280.5,454.9697,270.5926,454.6145,260.6852,454.4406,250.7778,453.9787,240.8704,453.6001,230.963,453.7909,221.0556,453.6214,211.1481,454.6401,201.2407,454.8339,191.3333,454.6728,181.4259,454.9915,171.5185,454.9752,161.6111,454.8291,151.7037,454.1508,141.7963,454.8941,131.8889,453.6203,121.9815,454.6202,112.0741,454.6768,102.1667,454.0141,92.2593,454.7355,82.3519,453.7345,72.4444,453.7362,62.537,453.9938,52.6296,454.225,42.7222,454.6464,32.8148,455.0416,22.9074,454.4894,13,454.3203,13.7217,454.3203,12.3583,445.0672,12.9318,435.8141,12.5834,426.5609,12.5529,417.3078,13,408.0547" style="stroke: #000000; stroke-width: 2.0;"/><polygon fill="#EEEEEE" points="13,408.0547,13,408.7509,22.625,407.8195,32.25,408.2468,41.875,407.776,51.5,407.7616,61.125,407.5756,70.75,408.1168,80.375,408.5791,90,408.0547,89.9064,408.0547,89.754,409.4547,89.8482,410.8547,89.8067,412.2547,89.9505,413.6547,90,415.0547,90.1628,415.2175,88.051,417.1057,85.884,418.9387,84.0815,421.1361,82.0365,423.0912,80,425.0547,80,424.9851,70.4286,424.6622,60.8571,425.7555,51.2857,425.2224,41.7143,425.6933,32.1429,424.9801,22.5714,424.7362,13,425.0547,13.1217,425.0547,12.7786,421.6547,12.9369,418.2547,12.8372,414.8547,12.813,411.4547,13,408.0547" style="stroke: #000000; stroke-width: 2.0;"/><text fill="#000000" font-family="sans-serif" font-size="13" font-weight="bold" lengthAdjust="spacingAndGlyphs" textLength="32" x="28" y="421.1216">loop</text><polygon fill="#383838" points="235,442.1875,234.9242,441.9981,236.9319,442.8172,238.9082,443.5581,241.0352,444.6756,243.0127,445.4193,245,446.1875,245.0632,446.3455,243.0682,447.1581,240.9211,447.5903,238.9641,448.4976,236.908,449.1575,235,450.1875,234.9695,450.157,235.8322,449.4197,236.7011,448.6886,237.5108,447.8983,238.3677,447.1552,239,446.1875,239.0856,446.2731,238.3232,445.5107,237.4414,444.6289,236.5766,443.7641,235.808,442.9955,235,442.1875" style="stroke: #383838; stroke-width: 1.0;"/><path d="M59,446.1875 L59,446.3614 L69.1111,446.3945 L79.2222,446.6161 L89.3333,445.3027 L99.4444,446.6206 L109.5556,446.2283 L119.6667,447.1313 L129.7778,445.7564 L139.8889,446.3623 L150,445.9914 L160.1111,446.8816 L170.2222,445.5699 L180.3333,445.9074 L190.4444,446.3086 L200.5556,445.8441 L210.6667,446.5469 L220.7778,446.5454 L230.8889,446.4689 L241,446.1875 " fill="none" style="stroke: #383838; stroke-width: 1.0;"/><text fill="#000000" font-family="sans-serif" font-size="13" lengthAdjust="spacingAndGlyphs" textLength="71" x="66" y="441.2544">POP3:DELE</text><polygon fill="#383838" points="235,478.3203,235.0861,478.5356,236.9777,479.0647,238.9947,479.9071,240.9587,480.617,242.9633,481.4286,245,482.3203,245.0429,482.4276,242.9535,483.0041,241.069,484.0929,239.0116,484.7493,236.9702,485.4457,235,486.3203,235.0096,486.3299,235.6865,485.4068,236.64,484.7604,237.2428,483.7631,238.2527,483.173,239,482.3203,239.1121,482.4324,238.1663,481.4866,237.3435,480.6638,236.6012,479.9215,235.7708,479.0912,235,478.3203" style="stroke: #383838; stroke-width: 1.0;"/><path d="M59,482.3203 L59,481.3311 L69.1111,482.0355 L79.2222,481.7314 L89.3333,483.3051 L99.4444,482.1225 L109.5556,482.9217 L119.6667,483.2383 L129.7778,481.6159 L139.8889,481.6442 L150,482.8463 L160.1111,483.0281 L170.2222,481.4306 L180.3333,481.3611 L190.4444,483.2662 L200.5556,482.1429 L210.6667,482.5048 L220.7778,481.9117 L230.8889,482.2154 L241,482.3203 " fill="none" style="stroke: #383838; stroke-width: 1.0;"/><text fill="#000000" font-family="sans-serif" font-size="13" lengthAdjust="spacingAndGlyphs" textLength="68" x="66" y="477.3872">POP3:QUIT</text><!--
@startuml
skinparam monochrome true
skinparam handwritten true
title Interface Secenario

Outlook->ZCP:POP3:USER <username>
Outlook->ZCP:POP3:PASS <password>
ZCP->Webmail:HTTP request logout
ZCP->Webmail:HTTP request login(username,password)
ZCP->Webmail:HTTP request searchRequest(query,searchRequestLimit)
Outlook->ZCP:POP3:UIDL
loop
Outlook->ZCP:POP3:RETR <uid>
ZCP->Webmail:HTTP request download(uid)
Webmail- ->>ZCP:HTTP Content body
ZCP- ->>Outlook:POP3 response
end
loop
Outlook->ZCP:POP3:DELE
end
Outlook->ZCP:POP3:QUIT
@enduml

PlantUML version 1.2017.18beta10(Unknown compile time)
(GPL source distribution)
Java Runtime: Java(TM) SE Runtime Environment
JVM: Java HotSpot(TM) 64-Bit Server VM
Java Version: 1.7.0_25-b15
Operating System: Linux
Default Encoding: UTF-8
Language: en
Country: US
--></g></svg>